<?xml version="1.0" standalone="yes"?>
<svg xmlns="http://www.w3.org/2000/svg" width="32" height="32">
<path style="fill:#010101; stroke:none;" d="M0 0L0 7L1 7L8 1L0 0z"/>
<path style="fill:#fefefe; stroke:none;" d="M8.00077 0.652779C-0.974495 3.4817 -3.24602 19.6293 1.74228 26.8951C5.95176 33.0264 17.4752 33.4035 23.9992 31.3472C32.9745 28.5183 35.246 12.3707 30.2577 5.10494C26.0482 -1.02642 14.5248 -1.40354 8.00077 0.652779z"/>
<path style="fill:#010101; stroke:none;" d="M24 0L24 1L31 7L32 7L32 0L24 0z"/>
<path style="fill:#a8d8e3; stroke:none;" d="M15 9L15 19L17 19L17 9L15 9M23 11L19 13L19 15L24 16L22 14L23 11M7.33333 15.6667L7.66667 16.3333L7.33333 15.6667z"/>
<path style="fill:#96a2ce; stroke:none;" d="M8 15L9 16L8 15z"/>
<path style="fill:#697ab8; stroke:none;" d="M8 16L9 17L8 16z"/>
<path style="fill:#96a2ce; stroke:none;" d="M8.66667 17.3333L9.33333 17.6667L8.66667 17.3333z"/>
<path style="fill:#a8d8e3; stroke:none;" d="M8 18L9 19L8 18z"/>
<path style="fill:#697ab8; stroke:none;" d="M9 18L13 22L9 18z"/>
<path style="fill:#a8d8e3; stroke:none;" d="M10 18L11 19L10 18z"/>
<path style="fill:#96a2ce; stroke:none;" d="M9 19L10 20L9 19z"/>
<path style="fill:#a8d8e3; stroke:none;" d="M11 19L12 20L11 19z"/>
<path style="fill:#96a2ce; stroke:none;" d="M10 20L11 21L10 20z"/>
<path style="fill:#a8d8e3; stroke:none;" d="M12 20L13 21L12 20M11 21L12 22L11 21z"/>
<path style="fill:#96a2ce; stroke:none;" d="M13.3333 21.6667L13.6667 22.3333L13.3333 21.6667z"/>
<path style="fill:#a8d8e3; stroke:none;" d="M14 21L15 22L14 21z"/>
<path style="fill:#697ab8; stroke:none;" d="M14.6667 22.3333L15.3333 22.6667L14.6667 22.3333z"/>
<path style="fill:#96a2ce; stroke:none;" d="M16 22L18 24L18 22L16 22z"/>
<path style="fill:#a8d8e3; stroke:none;" d="M15.6667 23.3333L16.3333 23.6667L15.6667 23.3333z"/>
<path style="fill:#010101; stroke:none;" d="M0 25L0 32L8 32L8 31L0 25M31 25L24 31L24 32L32 32L31 25z"/>
</svg>
